<svg width="30" height="30" viewBox="0 0 30 30" fill="none" xmlns="http://www.w3.org/2000/svg">
<rect width="30" height="30" rx="4" fill="#606060" fill-opacity="0.4"/>
<path d="M22.9687 21.3106L21.6667 9.06063C21.6667 8.29047 21.07 7.66669 20.3333 7.66669H15H9.66667C8.93 7.66669 8.33333 8.29047 8.33333 9.06063L7.03133 21.3106C7.012 21.406 7 21.5043 7 21.6061C7 22.3762 7.59667 23 8.33333 23H15H21.6667C22.4033 23 23 22.3762 23 21.6061C23 21.5043 22.988 21.406 22.9687 21.3106ZM18.3333 11.0874V11.8485C18.3333 13.7701 16.838 15.3334 15 15.3334C13.162 15.3334 11.6667 13.7701 11.6667 11.8485V11.0874C11.2793 10.9438 11 10.5605 11 10.1061C11 9.52899 11.448 9.06063 12 9.06063C12.552 9.06063 13 9.52899 13 10.1061V11.8485C13 13.0013 13.8973 13.9394 15 13.9394C16.1027 13.9394 17 13.0013 17 11.8485V10.1061C17 9.52899 17.448 9.06063 18 9.06063C18.552 9.06063 19 9.52899 19 10.1061C19 10.5605 18.7207 10.9438 18.3333 11.0874Z" fill="white"/>
</svg>
